<svg xmlns="http://www.w3.org/2000/svg" xmlns:xlink="http://www.w3.org/1999/xlink" width="500" zoomAndPan="magnify" viewBox="0 0 375 374.999991" height="500" preserveAspectRatio="xMidYMid meet" version="1.0"><defs><g/><clipPath id="1c117985f8"><path d="M 182.023438 160.4375 L 353.484375 160.4375 L 353.484375 214.5625 L 182.023438 214.5625 Z M 182.023438 160.4375 " clip-rule="nonzero"/></clipPath><clipPath id="613cdc6da0"><path d="M 220.339844 160.4375 L 347.203125 160.4375 C 349.351562 160.4375 351.335938 161.589844 352.402344 163.460938 C 353.464844 165.328125 353.449219 167.625 352.351562 169.472656 L 331.007812 205.527344 C 327.691406 211.128906 321.664062 214.5625 315.15625 214.5625 L 188.292969 214.5625 C 186.144531 214.5625 184.15625 213.410156 183.09375 211.539062 C 182.027344 209.671875 182.046875 207.375 183.144531 205.527344 L 204.488281 169.472656 C 207.804688 163.871094 213.828125 160.4375 220.339844 160.4375 Z M 220.339844 160.4375 " clip-rule="nonzero"/></clipPath><clipPath id="3bb9bea302"><path d="M 23 173 L 134.953125 173 L 134.953125 209.453125 L 23 209.453125 Z M 23 173 " clip-rule="nonzero"/></clipPath><clipPath id="9c0d8924f1"><path d="M 19.453125 111.203125 L 91 111.203125 L 91 205 L 19.453125 205 Z M 19.453125 111.203125 " clip-rule="nonzero"/></clipPath></defs><rect x="-37.5" width="450" fill="#ffffff" y="-37.499999" height="449.999989" fill-opacity="1"/><rect x="-37.5" width="450" fill="#90ee90" y="-37.499999" height="449.999989" fill-opacity="1"/><g clip-path="url(#1c117985f8)"><g clip-path="url(#613cdc6da0)"><path fill="#000000" d="M 177.792969 160.4375 L 357.710938 160.4375 L 357.710938 214.5625 L 177.792969 214.5625 Z M 177.792969 160.4375 " fill-opacity="1" fill-rule="nonzero"/></g></g><g clip-path="url(#3bb9bea302)"><path fill="#231f20" d="M 131.214844 175.421875 C 129.859375 174.667969 128.394531 174.070312 126.855469 173.667969 C 126.089844 173.46875 125.300781 173.316406 124.503906 173.210938 L 124.429688 173.199219 L 124.394531 173.195312 L 124.355469 173.191406 L 124.207031 173.175781 C 124.105469 173.164062 124.003906 173.152344 123.90625 173.140625 C 123.804688 173.132812 123.703125 173.125 123.605469 173.113281 L 123.453125 173.101562 C 123.429688 173.097656 123.402344 173.097656 123.378906 173.09375 L 123.304688 173.089844 C 123.203125 173.085938 123.101562 173.078125 123 173.070312 C 122.949219 173.070312 122.898438 173.0625 122.847656 173.0625 L 122.695312 173.058594 C 122.59375 173.054688 122.492188 173.050781 122.394531 173.046875 C 122.292969 173.042969 122.191406 173.042969 122.089844 173.039062 C 121.683594 173.03125 121.273438 173.042969 120.867188 173.054688 C 120.765625 173.0625 120.664062 173.066406 120.5625 173.074219 L 120.40625 173.082031 L 120.332031 173.085938 L 120.253906 173.089844 C 120.152344 173.097656 120.050781 173.105469 119.949219 173.113281 C 119.898438 173.117188 119.847656 173.121094 119.796875 173.125 L 119.644531 173.140625 C 119.539062 173.148438 119.4375 173.160156 119.335938 173.167969 C 119.234375 173.179688 119.132812 173.191406 119.03125 173.203125 L 118.875 173.222656 L 118.800781 173.230469 L 118.722656 173.242188 C 118.621094 173.253906 118.519531 173.269531 118.417969 173.285156 C 118.367188 173.289062 118.316406 173.296875 118.265625 173.304688 L 118.109375 173.328125 C 118.007812 173.34375 117.90625 173.359375 117.804688 173.378906 C 117.703125 173.394531 117.601562 173.414062 117.5 173.429688 L 117.347656 173.457031 C 117.296875 173.464844 117.242188 173.476562 117.195312 173.484375 C 116.378906 173.640625 115.566406 173.828125 114.761719 174.050781 L 114.6875 174.070312 L 114.609375 174.089844 L 114.460938 174.132812 C 114.359375 174.164062 114.257812 174.191406 114.15625 174.21875 C 114.058594 174.25 113.957031 174.28125 113.855469 174.3125 C 113.757812 174.339844 113.65625 174.371094 113.554688 174.402344 C 113.355469 174.46875 113.15625 174.53125 112.957031 174.597656 C 112.855469 174.632812 112.757812 174.664062 112.65625 174.699219 C 112.558594 174.734375 112.457031 174.769531 112.359375 174.804688 C 111.960938 174.941406 111.5625 175.089844 111.167969 175.242188 C 111.070312 175.28125 110.972656 175.320312 110.875 175.359375 C 110.773438 175.398438 110.675781 175.4375 110.578125 175.476562 C 110.480469 175.515625 110.382812 175.558594 110.28125 175.597656 L 110.136719 175.660156 L 109.988281 175.722656 C 109.207031 176.054688 108.429688 176.40625 107.65625 176.78125 C 106.886719 177.160156 106.121094 177.554688 105.363281 177.96875 L 105.222656 178.046875 L 105.078125 178.128906 C 104.984375 178.179688 104.890625 178.230469 104.796875 178.285156 C 104.699219 178.335938 104.605469 178.390625 104.511719 178.445312 C 104.417969 178.5 104.324219 178.550781 104.230469 178.605469 C 104.136719 178.660156 104.042969 178.714844 103.949219 178.769531 C 103.855469 178.824219 103.761719 178.878906 103.667969 178.933594 C 103.480469 179.046875 103.292969 179.15625 103.105469 179.265625 C 103.011719 179.320312 102.921875 179.378906 102.828125 179.433594 C 102.734375 179.492188 102.640625 179.546875 102.546875 179.601562 C 102.453125 179.660156 102.359375 179.714844 102.265625 179.773438 C 102.175781 179.828125 102.082031 179.886719 101.988281 179.941406 C 101.800781 180.058594 101.613281 180.171875 101.429688 180.289062 C 101.246094 180.402344 101.058594 180.519531 100.875 180.636719 L 100.734375 180.722656 L 100.59375 180.8125 C 100.503906 180.871094 100.410156 180.929688 100.316406 180.988281 C 100.222656 181.046875 100.132812 181.105469 100.039062 181.164062 C 99.945312 181.222656 99.855469 181.28125 99.761719 181.34375 C 99.578125 181.460938 99.390625 181.582031 99.207031 181.699219 C 99.023438 181.820312 98.839844 181.941406 98.652344 182.0625 C 95.699219 184 92.773438 186.0625 89.828125 188.171875 C 86.882812 190.28125 83.910156 192.4375 80.867188 194.546875 C 80.105469 195.074219 79.339844 195.601562 78.566406 196.121094 C 77.792969 196.640625 77.015625 197.160156 76.230469 197.667969 C 76.035156 197.796875 75.839844 197.921875 75.640625 198.050781 C 75.445312 198.175781 75.246094 198.304688 75.050781 198.429688 C 74.851562 198.554688 74.652344 198.679688 74.453125 198.804688 C 74.253906 198.929688 74.054688 199.054688 73.855469 199.175781 C 73.058594 199.671875 72.253906 200.160156 71.4375 200.636719 C 70.625 201.117188 69.800781 201.582031 68.96875 202.039062 C 68.136719 202.492188 67.296875 202.933594 66.449219 203.363281 C 65.597656 203.792969 64.738281 204.207031 63.871094 204.601562 C 63.4375 204.804688 62.996094 204.992188 62.558594 205.183594 C 62.339844 205.277344 62.117188 205.371094 61.898438 205.464844 C 61.789062 205.511719 61.675781 205.558594 61.566406 205.601562 C 61.453125 205.648438 61.34375 205.691406 61.234375 205.738281 C 61.136719 205.777344 61.039062 205.816406 60.945312 205.855469 C 60.847656 205.894531 60.75 205.929688 60.652344 205.96875 C 60.554688 206.007812 60.460938 206.042969 60.363281 206.082031 L 60.21875 206.136719 C 60.167969 206.15625 60.121094 206.175781 60.074219 206.195312 C 59.683594 206.339844 59.296875 206.488281 58.90625 206.625 C 58.808594 206.660156 58.710938 206.691406 58.613281 206.726562 L 58.464844 206.78125 L 58.320312 206.828125 C 58.125 206.894531 57.929688 206.960938 57.734375 207.027344 C 57.683594 207.046875 57.636719 207.0625 57.585938 207.078125 L 57.4375 207.125 C 57.339844 207.15625 57.242188 207.1875 57.144531 207.21875 C 57.046875 207.25 56.945312 207.285156 56.847656 207.316406 L 56.773438 207.339844 L 56.699219 207.359375 L 56.554688 207.40625 C 56.355469 207.464844 56.160156 207.527344 55.960938 207.585938 C 55.914062 207.601562 55.863281 207.613281 55.8125 207.628906 L 55.664062 207.671875 C 55.566406 207.699219 55.464844 207.726562 55.367188 207.753906 C 55.269531 207.785156 55.171875 207.8125 55.070312 207.839844 C 54.972656 207.867188 54.871094 207.894531 54.773438 207.917969 C 54.574219 207.972656 54.375 208.023438 54.175781 208.078125 C 53.386719 208.28125 52.59375 208.457031 51.804688 208.546875 C 51.410156 208.59375 51.015625 208.617188 50.625 208.617188 C 50.234375 208.613281 49.847656 208.582031 49.46875 208.511719 C 49.421875 208.503906 49.375 208.496094 49.328125 208.484375 L 49.257812 208.472656 L 49.1875 208.457031 C 49.097656 208.4375 49.007812 208.414062 48.921875 208.386719 C 48.832031 208.359375 48.746094 208.328125 48.660156 208.292969 C 48.574219 208.261719 48.488281 208.226562 48.40625 208.1875 C 48.324219 208.144531 48.242188 208.105469 48.164062 208.058594 L 48.136719 208.042969 L 48.109375 208.023438 L 48.050781 207.988281 C 48.015625 207.960938 47.976562 207.9375 47.941406 207.914062 C 47.921875 207.898438 47.90625 207.886719 47.886719 207.875 L 47.835938 207.832031 C 47.816406 207.820312 47.800781 207.804688 47.785156 207.792969 L 47.761719 207.769531 C 47.75 207.761719 47.742188 207.757812 47.734375 207.75 C 47.671875 207.691406 47.613281 207.628906 47.554688 207.570312 C 47.445312 207.441406 47.355469 207.304688 47.292969 207.164062 C 47.261719 207.09375 47.238281 207.019531 47.21875 206.945312 C 47.203125 206.871094 47.191406 206.792969 47.1875 206.714844 C 47.179688 206.5625 47.199219 206.40625 47.242188 206.246094 C 47.289062 206.085938 47.355469 205.921875 47.441406 205.765625 C 47.527344 205.605469 47.628906 205.445312 47.738281 205.289062 C 47.792969 205.210938 47.851562 205.132812 47.910156 205.050781 C 47.9375 205.011719 47.96875 204.972656 48 204.933594 L 48.089844 204.816406 C 48.210938 204.664062 48.335938 204.511719 48.464844 204.363281 C 48.59375 204.214844 48.722656 204.066406 48.859375 203.917969 C 49.128906 203.625 49.40625 203.339844 49.6875 203.054688 C 49.972656 202.773438 50.257812 202.492188 50.546875 202.214844 C 51.125 201.65625 51.710938 201.101562 52.289062 200.539062 C 52.863281 199.972656 53.429688 199.398438 53.976562 198.796875 C 54.246094 198.5 54.511719 198.191406 54.769531 197.878906 C 54.832031 197.796875 54.898438 197.71875 54.960938 197.636719 L 55.054688 197.519531 L 55.144531 197.398438 C 55.207031 197.316406 55.265625 197.234375 55.328125 197.152344 C 55.355469 197.109375 55.386719 197.066406 55.417969 197.027344 C 55.445312 196.984375 55.476562 196.945312 55.503906 196.902344 L 55.589844 196.773438 C 55.621094 196.734375 55.648438 196.691406 55.675781 196.648438 C 55.734375 196.5625 55.785156 196.476562 55.839844 196.390625 C 55.949219 196.214844 56.054688 196.039062 56.152344 195.855469 C 56.203125 195.765625 56.246094 195.675781 56.296875 195.582031 C 56.316406 195.535156 56.339844 195.488281 56.363281 195.445312 L 56.398438 195.375 L 56.429688 195.304688 L 56.492188 195.160156 L 56.554688 195.019531 C 56.574219 194.96875 56.59375 194.921875 56.609375 194.875 L 56.640625 194.800781 C 56.648438 194.777344 56.65625 194.753906 56.664062 194.726562 L 56.71875 194.582031 C 56.726562 194.554688 56.734375 194.53125 56.742188 194.507812 L 56.765625 194.429688 L 56.789062 194.355469 C 56.796875 194.332031 56.804688 194.304688 56.8125 194.28125 C 56.824219 194.230469 56.839844 194.179688 56.851562 194.128906 C 56.90625 193.925781 56.949219 193.722656 56.980469 193.511719 C 57.011719 193.304688 57.03125 193.09375 57.035156 192.882812 C 57.039062 192.667969 57.03125 192.453125 57.007812 192.238281 C 56.957031 191.8125 56.832031 191.390625 56.636719 191 C 56.539062 190.808594 56.425781 190.621094 56.296875 190.449219 C 56.171875 190.277344 56.027344 190.117188 55.875 189.96875 C 55.570312 189.671875 55.222656 189.425781 54.859375 189.226562 C 54.496094 189.027344 54.117188 188.867188 53.730469 188.746094 C 53.535156 188.683594 53.339844 188.628906 53.140625 188.585938 C 53.042969 188.5625 52.945312 188.542969 52.84375 188.523438 L 52.695312 188.496094 C 52.648438 188.484375 52.597656 188.480469 52.546875 188.472656 C 52.347656 188.441406 52.148438 188.417969 51.949219 188.402344 C 51.75 188.386719 51.550781 188.375 51.347656 188.371094 C 51.148438 188.367188 50.949219 188.371094 50.75 188.382812 C 50.550781 188.390625 50.351562 188.410156 50.152344 188.433594 C 49.757812 188.480469 49.363281 188.554688 48.976562 188.664062 L 48.832031 188.707031 C 48.785156 188.722656 48.738281 188.738281 48.6875 188.753906 C 48.664062 188.761719 48.640625 188.769531 48.617188 188.777344 L 48.550781 188.800781 L 48.414062 188.851562 L 48.273438 188.898438 L 48.136719 188.953125 C 48.09375 188.96875 48.046875 188.984375 48 189.003906 L 47.867188 189.054688 C 47.503906 189.195312 47.148438 189.347656 46.796875 189.507812 C 46.445312 189.667969 46.101562 189.835938 45.757812 190.011719 C 45.675781 190.054688 45.589844 190.097656 45.503906 190.140625 C 45.417969 190.1875 45.335938 190.230469 45.25 190.277344 C 45.167969 190.324219 45.082031 190.367188 45 190.414062 C 44.914062 190.457031 44.832031 190.507812 44.75 190.554688 C 44.414062 190.738281 44.085938 190.929688 43.761719 191.125 C 43.433594 191.316406 43.113281 191.515625 42.792969 191.714844 C 42.152344 192.113281 41.519531 192.519531 40.894531 192.921875 C 40.578125 193.125 40.265625 193.324219 39.953125 193.523438 C 39.796875 193.621094 39.640625 193.722656 39.480469 193.820312 C 39.324219 193.917969 39.167969 194.015625 39.011719 194.113281 C 38.695312 194.3125 38.382812 194.507812 38.070312 194.703125 C 37.757812 194.902344 37.445312 195.101562 37.136719 195.300781 C 35.894531 196.097656 34.675781 196.902344 33.476562 197.722656 C 33.175781 197.925781 32.878906 198.128906 32.582031 198.335938 C 32.433594 198.441406 32.285156 198.542969 32.136719 198.648438 C 31.988281 198.75 31.839844 198.851562 31.695312 198.957031 C 31.398438 199.164062 31.105469 199.371094 30.816406 199.578125 C 30.523438 199.789062 30.234375 199.996094 29.945312 200.207031 C 27.632812 201.886719 25.40625 203.597656 23.273438 205.351562 C 28.054688 201.609375 33.292969 198.007812 38.9375 194.609375 C 39.113281 194.503906 39.292969 194.398438 39.46875 194.292969 C 39.644531 194.183594 39.824219 194.078125 40 193.96875 C 40.355469 193.753906 40.707031 193.535156 41.0625 193.316406 C 41.769531 192.878906 42.476562 192.4375 43.195312 192.007812 C 43.914062 191.578125 44.644531 191.160156 45.386719 190.769531 C 46.132812 190.382812 46.894531 190.019531 47.679688 189.707031 C 47.875 189.628906 48.074219 189.554688 48.273438 189.480469 L 48.421875 189.429688 C 48.46875 189.410156 48.519531 189.390625 48.570312 189.375 L 48.71875 189.324219 L 48.796875 189.300781 C 48.820312 189.292969 48.847656 189.28125 48.871094 189.277344 C 49.261719 189.152344 49.671875 189.066406 50.082031 189.015625 C 50.496094 188.964844 50.917969 188.945312 51.335938 188.957031 C 51.753906 188.96875 52.171875 189.011719 52.585938 189.085938 C 52.996094 189.160156 53.402344 189.269531 53.792969 189.417969 C 54.183594 189.566406 54.554688 189.753906 54.894531 189.984375 C 55.230469 190.21875 55.53125 190.496094 55.769531 190.820312 C 55.886719 190.980469 55.992188 191.15625 56.074219 191.335938 C 56.160156 191.515625 56.226562 191.707031 56.273438 191.902344 C 56.320312 192.097656 56.351562 192.296875 56.363281 192.5 C 56.375 192.703125 56.367188 192.910156 56.347656 193.117188 C 56.328125 193.320312 56.296875 193.527344 56.25 193.730469 C 56.203125 193.933594 56.144531 194.136719 56.074219 194.335938 C 56.007812 194.535156 55.925781 194.730469 55.839844 194.925781 L 55.699219 195.214844 C 55.675781 195.265625 55.652344 195.3125 55.625 195.359375 L 55.589844 195.429688 C 55.574219 195.453125 55.5625 195.476562 55.550781 195.5 C 55.445312 195.6875 55.335938 195.871094 55.21875 196.054688 C 55.101562 196.238281 54.976562 196.417969 54.851562 196.59375 C 54.339844 197.300781 53.757812 197.96875 53.148438 198.613281 C 52.535156 199.257812 51.890625 199.882812 51.234375 200.507812 C 50.578125 201.128906 49.914062 201.746094 49.257812 202.390625 C 49.09375 202.550781 48.929688 202.714844 48.769531 202.878906 C 48.605469 203.042969 48.445312 203.210938 48.289062 203.382812 C 48.128906 203.550781 47.972656 203.726562 47.820312 203.902344 C 47.664062 204.082031 47.515625 204.261719 47.371094 204.449219 C 47.226562 204.636719 47.085938 204.828125 46.949219 205.03125 C 46.816406 205.238281 46.6875 205.457031 46.585938 205.699219 C 46.535156 205.820312 46.492188 205.945312 46.457031 206.078125 C 46.441406 206.140625 46.425781 206.210938 46.414062 206.277344 C 46.402344 206.347656 46.390625 206.414062 46.386719 206.484375 C 46.382812 206.554688 46.378906 206.625 46.378906 206.695312 C 46.382812 206.730469 46.382812 206.765625 46.386719 206.800781 L 46.394531 206.90625 C 46.414062 207.046875 46.445312 207.1875 46.488281 207.324219 L 46.507812 207.371094 C 46.511719 207.390625 46.519531 207.40625 46.527344 207.421875 L 46.566406 207.519531 L 46.613281 207.613281 C 46.628906 207.644531 46.644531 207.675781 46.660156 207.707031 C 46.730469 207.828125 46.808594 207.941406 46.894531 208.046875 C 46.980469 208.152344 47.074219 208.246094 47.171875 208.335938 C 47.269531 208.425781 47.375 208.511719 47.480469 208.585938 C 47.585938 208.660156 47.695312 208.730469 47.804688 208.796875 C 47.917969 208.859375 48.03125 208.917969 48.148438 208.96875 C 48.378906 209.074219 48.621094 209.160156 48.863281 209.222656 C 48.925781 209.242188 48.988281 209.257812 49.050781 209.269531 C 49.109375 209.28125 49.171875 209.296875 49.230469 209.308594 C 49.292969 209.320312 49.351562 209.332031 49.414062 209.339844 L 49.550781 209.363281 L 49.59375 209.367188 C 49.835938 209.402344 50.082031 209.425781 50.324219 209.4375 C 50.816406 209.460938 51.300781 209.441406 51.78125 209.390625 C 52.261719 209.339844 52.738281 209.261719 53.207031 209.167969 C 53.441406 209.121094 53.671875 209.066406 53.902344 209.015625 C 54.136719 208.960938 54.367188 208.902344 54.59375 208.839844 C 54.824219 208.78125 55.050781 208.722656 55.28125 208.660156 C 55.507812 208.597656 55.734375 208.53125 55.964844 208.46875 L 56.136719 208.417969 C 56.191406 208.402344 56.25 208.386719 56.304688 208.367188 C 56.417969 208.335938 56.53125 208.300781 56.648438 208.265625 C 56.761719 208.230469 56.875 208.199219 56.988281 208.164062 C 57.101562 208.128906 57.214844 208.089844 57.328125 208.054688 C 57.441406 208.019531 57.554688 207.984375 57.667969 207.949219 C 57.78125 207.910156 57.894531 207.875 58.007812 207.835938 C 58.230469 207.761719 58.457031 207.6875 58.683594 207.609375 C 58.738281 207.589844 58.796875 207.570312 58.851562 207.550781 L 59.019531 207.492188 C 59.132812 207.453125 59.246094 207.414062 59.355469 207.371094 C 59.582031 207.292969 59.804688 207.210938 60.027344 207.125 C 60.140625 207.085938 60.253906 207.042969 60.363281 207 C 60.421875 206.980469 60.476562 206.960938 60.53125 206.9375 L 60.699219 206.871094 C 60.808594 206.828125 60.921875 206.785156 61.03125 206.742188 L 61.199219 206.675781 L 61.285156 206.644531 L 61.367188 206.613281 C 61.589844 206.523438 61.808594 206.429688 62.03125 206.339844 L 62.113281 206.308594 L 62.199219 206.273438 L 62.363281 206.203125 C 62.472656 206.15625 62.582031 206.109375 62.695312 206.0625 L 63.023438 205.921875 C 63.136719 205.875 63.246094 205.824219 63.355469 205.777344 C 63.464844 205.730469 63.574219 205.679688 63.683594 205.632812 L 63.765625 205.597656 L 63.847656 205.558594 L 64.011719 205.484375 C 64.121094 205.433594 64.230469 205.386719 64.339844 205.335938 L 64.503906 205.261719 L 64.585938 205.222656 L 64.667969 205.1875 C 64.886719 205.082031 65.101562 204.980469 65.320312 204.878906 C 66.191406 204.464844 67.050781 204.03125 67.910156 203.585938 C 68.121094 203.472656 68.335938 203.359375 68.550781 203.246094 C 68.65625 203.191406 68.761719 203.132812 68.871094 203.074219 C 68.976562 203.015625 69.082031 202.957031 69.1875 202.902344 C 69.292969 202.84375 69.402344 202.785156 69.507812 202.726562 C 69.613281 202.667969 69.71875 202.609375 69.824219 202.550781 C 70.035156 202.433594 70.25 202.316406 70.457031 202.195312 C 70.640625 202.089844 70.824219 201.984375 71.007812 201.882812 C 71.1875 201.777344 71.371094 201.671875 71.550781 201.566406 L 71.824219 201.40625 L 72.09375 201.246094 C 72.273438 201.140625 72.457031 201.03125 72.636719 200.925781 C 72.992188 200.707031 73.351562 200.492188 73.707031 200.273438 C 73.886719 200.164062 74.0625 200.054688 74.242188 199.941406 C 74.417969 199.832031 74.59375 199.722656 74.769531 199.609375 C 74.949219 199.5 75.125 199.386719 75.300781 199.273438 L 75.5625 199.109375 L 75.695312 199.023438 L 75.824219 198.9375 C 76 198.824219 76.175781 198.710938 76.347656 198.597656 C 76.4375 198.542969 76.523438 198.484375 76.609375 198.429688 C 76.699219 198.371094 76.785156 198.316406 76.871094 198.257812 C 77.21875 198.03125 77.5625 197.800781 77.90625 197.570312 C 78.082031 197.457031 78.253906 197.339844 78.425781 197.226562 C 78.597656 197.109375 78.769531 196.996094 78.9375 196.878906 C 79.109375 196.761719 79.28125 196.644531 79.449219 196.527344 C 79.621094 196.414062 79.789062 196.296875 79.960938 196.179688 C 80.300781 195.945312 80.636719 195.710938 80.976562 195.476562 C 81.652344 195.003906 82.324219 194.53125 82.988281 194.058594 C 84.324219 193.109375 85.644531 192.152344 86.953125 191.199219 C 89.578125 189.292969 92.164062 187.394531 94.75 185.5625 C 97.335938 183.726562 99.925781 181.960938 102.550781 180.316406 C 102.714844 180.214844 102.878906 180.113281 103.042969 180.011719 C 103.125 179.960938 103.207031 179.910156 103.289062 179.859375 C 103.371094 179.808594 103.453125 179.757812 103.535156 179.707031 C 103.699219 179.609375 103.863281 179.507812 104.027344 179.40625 C 104.195312 179.308594 104.359375 179.210938 104.523438 179.113281 C 105.183594 178.722656 105.847656 178.34375 106.519531 177.980469 C 107.859375 177.257812 109.222656 176.589844 110.605469 176 C 111.988281 175.40625 113.390625 174.890625 114.8125 174.472656 C 116.234375 174.058594 117.671875 173.738281 119.121094 173.546875 C 119.84375 173.449219 120.566406 173.382812 121.289062 173.355469 L 121.359375 173.351562 L 121.425781 173.347656 L 121.5625 173.34375 C 121.652344 173.34375 121.742188 173.339844 121.832031 173.339844 C 121.921875 173.335938 122.011719 173.335938 122.101562 173.335938 C 122.191406 173.335938 122.285156 173.335938 122.371094 173.335938 C 122.464844 173.335938 122.554688 173.339844 122.644531 173.339844 L 122.777344 173.34375 C 122.824219 173.34375 122.867188 173.34375 122.914062 173.347656 C 123.003906 173.351562 123.09375 173.355469 123.183594 173.359375 C 123.273438 173.363281 123.363281 173.367188 123.453125 173.371094 C 124.886719 173.457031 126.300781 173.695312 127.660156 174.09375 C 128.339844 174.289062 129.003906 174.523438 129.652344 174.796875 C 130.300781 175.070312 130.929688 175.378906 131.539062 175.71875 C 132.757812 176.398438 133.890625 177.207031 134.9375 178.101562 C 133.8125 177.089844 132.570312 176.175781 131.214844 175.421875 " fill-opacity="1" fill-rule="nonzero"/></g><g clip-path="url(#9c0d8924f1)"><path fill="#231f20" d="M 70.074219 143.714844 C 70.074219 143.714844 62.367188 148.921875 55.039062 143.804688 C 55.039062 143.804688 64.058594 144.335938 70.074219 143.714844 Z M 62.464844 155.164062 C 62.289062 155.253906 62.027344 155.378906 61.699219 155.523438 C 61.371094 155.667969 60.972656 155.832031 60.515625 156.003906 C 60.402344 156.046875 60.285156 156.089844 60.167969 156.132812 C 60.046875 156.179688 59.925781 156.222656 59.800781 156.269531 C 59.550781 156.355469 59.285156 156.445312 59.011719 156.535156 C 58.464844 156.707031 57.875 156.871094 57.257812 157.007812 C 57.179688 157.027344 57.101562 157.042969 57.023438 157.058594 C 56.945312 157.078125 56.867188 157.09375 56.789062 157.109375 C 56.632812 157.140625 56.472656 157.171875 56.3125 157.199219 C 55.996094 157.257812 55.671875 157.304688 55.339844 157.34375 C 54.683594 157.414062 54.011719 157.445312 53.339844 157.414062 C 52.664062 157.378906 51.988281 157.285156 51.335938 157.109375 C 51.453125 157.082031 51.570312 157.050781 51.691406 157.027344 L 52.050781 156.945312 L 52.773438 156.789062 C 53.25 156.6875 53.730469 156.585938 54.207031 156.484375 C 54.683594 156.386719 55.15625 156.289062 55.632812 156.195312 C 56.109375 156.105469 56.589844 156.015625 57.0625 155.929688 C 57.539062 155.839844 58.015625 155.757812 58.488281 155.675781 L 59.195312 155.550781 C 59.3125 155.53125 59.433594 155.511719 59.554688 155.496094 L 59.910156 155.4375 C 60.859375 155.292969 61.804688 155.15625 62.742188 155.027344 C 62.742188 155.027344 62.644531 155.078125 62.464844 155.164062 Z M 23.425781 200.035156 C 23.265625 200.28125 22.9375 200.414062 22.621094 200.359375 C 22.097656 200.265625 21.832031 199.757812 22.09375 199.351562 C 22.253906 199.105469 22.582031 198.972656 22.898438 199.027344 C 23.421875 199.121094 23.6875 199.628906 23.425781 200.035156 Z M 90.976562 113.765625 C 90.964844 113.695312 90.929688 113.621094 90.875 113.558594 C 90.824219 113.492188 90.75 113.429688 90.65625 113.382812 C 90.105469 113.101562 89.527344 112.851562 88.933594 112.632812 L 88.824219 112.589844 C 88.785156 112.574219 88.746094 112.5625 88.707031 112.550781 L 88.472656 112.472656 L 88.234375 112.394531 C 88.195312 112.382812 88.15625 112.371094 88.117188 112.359375 L 88.003906 112.320312 C 87.847656 112.273438 87.691406 112.230469 87.535156 112.183594 C 87.378906 112.140625 87.226562 112.097656 87.070312 112.058594 C 85.835938 111.734375 84.605469 111.515625 83.382812 111.382812 C 82.15625 111.25 80.9375 111.207031 79.726562 111.234375 C 79.425781 111.242188 79.121094 111.25 78.820312 111.265625 C 78.523438 111.285156 78.222656 111.304688 77.921875 111.328125 C 77.617188 111.351562 77.324219 111.382812 77.027344 111.417969 L 76.582031 111.46875 L 76.359375 111.496094 L 76.136719 111.527344 C 76.136719 111.527344 76.011719 111.542969 75.773438 111.582031 C 75.652344 111.605469 75.503906 111.632812 75.328125 111.667969 C 75.242188 111.6875 75.148438 111.707031 75.046875 111.730469 C 74.949219 111.753906 74.84375 111.78125 74.734375 111.8125 C 74.292969 111.933594 73.746094 112.097656 73.144531 112.339844 C 72.992188 112.398438 72.835938 112.460938 72.675781 112.53125 C 72.59375 112.5625 72.511719 112.597656 72.429688 112.632812 C 72.351562 112.671875 72.269531 112.710938 72.183594 112.75 C 71.855469 112.910156 71.503906 113.085938 71.144531 113.28125 C 70.789062 113.480469 70.425781 113.699219 70.046875 113.941406 C 69.855469 114.0625 69.675781 114.191406 69.484375 114.324219 C 69.296875 114.460938 69.105469 114.601562 68.914062 114.746094 C 68.820312 114.816406 68.722656 114.890625 68.625 114.96875 C 68.53125 115.042969 68.4375 115.121094 68.34375 115.203125 C 68.15625 115.363281 67.964844 115.527344 67.773438 115.699219 C 67.675781 115.785156 67.582031 115.871094 67.484375 115.960938 C 67.460938 115.980469 67.4375 116.003906 67.414062 116.027344 C 67.390625 116.050781 67.367188 116.070312 67.34375 116.09375 C 67.296875 116.140625 67.25 116.1875 67.203125 116.234375 C 67.019531 116.417969 66.832031 116.609375 66.644531 116.808594 C 66.265625 117.199219 65.914062 117.628906 65.554688 118.078125 C 65.46875 118.191406 65.378906 118.304688 65.289062 118.421875 C 65.246094 118.480469 65.203125 118.535156 65.160156 118.59375 C 65.117188 118.65625 65.074219 118.714844 65.03125 118.773438 C 64.863281 119.015625 64.695312 119.261719 64.53125 119.511719 C 64.449219 119.640625 64.367188 119.765625 64.285156 119.894531 C 64.246094 119.960938 64.203125 120.023438 64.164062 120.089844 C 64.128906 120.15625 64.089844 120.222656 64.050781 120.289062 C 63.894531 120.558594 63.746094 120.832031 63.597656 121.113281 C 63.523438 121.253906 63.449219 121.394531 63.378906 121.535156 C 63.339844 121.609375 63.304688 121.679688 63.269531 121.75 C 63.234375 121.824219 63.203125 121.898438 63.167969 121.972656 C 63.03125 122.265625 62.902344 122.566406 62.773438 122.875 C 62.773438 122.875 62.734375 122.765625 62.730469 122.492188 C 62.730469 122.355469 62.738281 122.175781 62.765625 121.953125 C 62.78125 121.839844 62.800781 121.714844 62.824219 121.578125 C 62.835938 121.507812 62.851562 121.4375 62.867188 121.363281 C 62.875 121.324219 62.886719 121.285156 62.894531 121.246094 C 62.902344 121.207031 62.914062 121.167969 62.925781 121.125 C 63.011719 120.800781 63.128906 120.421875 63.296875 119.980469 C 63.378906 119.757812 63.472656 119.523438 63.578125 119.269531 C 63.691406 119.019531 63.820312 118.75 63.960938 118.46875 C 64.105469 118.183594 64.261719 117.882812 64.441406 117.5625 C 64.625 117.246094 64.828125 116.910156 65.050781 116.554688 C 65.160156 116.378906 65.277344 116.195312 65.402344 116.011719 C 65.527344 115.824219 65.660156 115.636719 65.800781 115.441406 C 65.9375 115.25 66.085938 115.050781 66.234375 114.847656 C 66.3125 114.746094 66.390625 114.640625 66.46875 114.535156 C 66.550781 114.433594 66.636719 114.328125 66.71875 114.222656 L 66.414062 114.355469 C 66.363281 114.375 66.3125 114.398438 66.265625 114.421875 L 66.117188 114.488281 L 65.523438 114.765625 L 64.929688 115.046875 C 64.828125 115.089844 64.730469 115.140625 64.636719 115.191406 L 64.347656 115.335938 L 63.769531 115.636719 L 63.480469 115.785156 L 63.335938 115.863281 C 63.289062 115.886719 63.238281 115.914062 63.195312 115.9375 C 62.820312 116.148438 62.445312 116.359375 62.074219 116.570312 L 61.792969 116.734375 L 61.65625 116.8125 L 61.519531 116.898438 L 60.976562 117.230469 L 60.433594 117.570312 C 60.257812 117.683594 60.074219 117.796875 59.902344 117.914062 C 59.550781 118.144531 59.203125 118.382812 58.855469 118.621094 L 58.59375 118.796875 L 58.464844 118.886719 L 58.339844 118.980469 L 57.832031 119.347656 C 55.140625 121.316406 52.707031 123.484375 50.511719 125.761719 C 50.46875 125.808594 50.421875 125.855469 50.378906 125.902344 L 50.25 126.046875 C 50.164062 126.140625 50.078125 126.238281 49.992188 126.335938 C 49.824219 126.53125 49.660156 126.726562 49.496094 126.929688 C 49.335938 127.128906 49.179688 127.332031 49.027344 127.539062 C 48.992188 127.589844 48.953125 127.640625 48.917969 127.691406 L 48.8125 127.847656 C 48.742188 127.953125 48.671875 128.058594 48.601562 128.164062 C 48.328125 128.589844 48.070312 129.023438 47.835938 129.460938 L 47.746094 129.628906 C 47.71875 129.683594 47.691406 129.738281 47.664062 129.792969 C 47.609375 129.90625 47.554688 130.019531 47.503906 130.128906 C 47.402344 130.355469 47.300781 130.582031 47.207031 130.808594 C 47.113281 131.035156 47.027344 131.265625 46.941406 131.496094 C 46.898438 131.609375 46.859375 131.726562 46.820312 131.839844 C 46.800781 131.898438 46.78125 131.957031 46.761719 132.015625 L 46.710938 132.1875 C 46.574219 132.65625 46.457031 133.125 46.363281 133.597656 C 46.316406 133.832031 46.273438 134.070312 46.234375 134.308594 C 46.21875 134.425781 46.199219 134.542969 46.183594 134.660156 C 46.167969 134.78125 46.160156 134.898438 46.148438 135.019531 C 46.105469 135.496094 46.082031 135.972656 46.082031 136.445312 C 46.082031 136.734375 46.089844 137.019531 46.097656 137.292969 C 46.101562 137.433594 46.105469 137.570312 46.113281 137.703125 C 46.117188 137.738281 46.117188 137.769531 46.117188 137.804688 C 46.121094 137.839844 46.125 137.871094 46.125 137.90625 C 46.132812 137.972656 46.136719 138.039062 46.140625 138.101562 C 46.183594 138.628906 46.246094 139.121094 46.328125 139.5625 C 46.492188 140.453125 46.738281 141.15625 47.078125 141.570312 C 47.078125 141.570312 46.976562 141.523438 46.796875 141.34375 C 46.613281 141.167969 46.355469 140.863281 46.039062 140.347656 C 45.722656 139.835938 45.351562 139.113281 44.957031 138.089844 C 44.855469 137.835938 44.757812 137.5625 44.65625 137.265625 C 44.554688 136.972656 44.449219 136.65625 44.355469 136.320312 C 44.160156 135.648438 43.964844 134.890625 43.777344 134.03125 C 41.242188 137.691406 39.132812 141.425781 37.375 145.097656 C 35.613281 148.769531 34.199219 152.378906 33.039062 155.828125 C 32.941406 156.117188 32.851562 156.410156 32.769531 156.703125 C 32.6875 156.996094 32.609375 157.289062 32.546875 157.585938 C 32.421875 158.179688 32.328125 158.78125 32.261719 159.378906 C 32.230469 159.679688 32.207031 159.980469 32.1875 160.28125 C 32.179688 160.429688 32.175781 160.578125 32.171875 160.730469 C 32.167969 160.804688 32.164062 160.878906 32.164062 160.953125 L 32.167969 161.179688 C 32.171875 161.78125 32.210938 162.382812 32.28125 162.980469 C 32.335938 163.449219 32.398438 163.902344 32.46875 164.335938 C 32.503906 164.554688 32.542969 164.765625 32.582031 164.96875 C 32.625 165.171875 32.667969 165.371094 32.714844 165.558594 C 32.902344 166.3125 33.125 166.933594 33.390625 167.328125 C 33.390625 167.328125 33.097656 166.953125 32.636719 166.242188 C 32.402344 165.890625 32.128906 165.449219 31.828125 164.933594 C 31.753906 164.804688 31.675781 164.671875 31.597656 164.535156 C 31.519531 164.394531 31.441406 164.25 31.359375 164.101562 C 31.199219 163.808594 31.035156 163.492188 30.867188 163.160156 C 30.625 164.0625 30.421875 164.949219 30.21875 165.816406 C 30.121094 166.25 30.023438 166.675781 29.929688 167.101562 C 29.882812 167.3125 29.835938 167.519531 29.789062 167.730469 C 29.746094 167.9375 29.707031 168.144531 29.664062 168.351562 C 29.496094 169.175781 29.339844 169.976562 29.195312 170.753906 C 29.15625 170.945312 29.121094 171.140625 29.085938 171.332031 C 29.078125 171.378906 29.066406 171.425781 29.058594 171.472656 C 29.050781 171.519531 29.042969 171.570312 29.035156 171.617188 C 29.019531 171.710938 29.003906 171.804688 28.988281 171.898438 C 28.921875 172.277344 28.863281 172.648438 28.804688 173.011719 C 28.683594 173.734375 28.574219 174.4375 28.472656 175.109375 C 28.460938 175.195312 28.449219 175.277344 28.4375 175.359375 C 28.425781 175.445312 28.414062 175.527344 28.402344 175.609375 C 28.382812 175.773438 28.359375 175.9375 28.339844 176.097656 C 28.296875 176.421875 28.253906 176.738281 28.214844 177.046875 C 28.136719 177.664062 28.066406 178.25 28.003906 178.804688 C 27.988281 178.941406 27.972656 179.078125 27.957031 179.214844 C 27.941406 179.347656 27.925781 179.480469 27.914062 179.613281 C 27.890625 179.875 27.863281 180.128906 27.839844 180.375 C 27.839844 180.417969 27.828125 180.460938 27.8125 180.5 L 27.128906 182.257812 L 26.789062 183.140625 L 26.703125 183.359375 L 26.621094 183.578125 L 26.457031 184.023438 L 25.796875 185.789062 L 25.464844 186.671875 L 25.300781 187.113281 L 25.21875 187.332031 L 25.140625 187.554688 L 24.429688 189.535156 L 24.464844 189.546875 C 24.371094 189.800781 24.277344 190.054688 24.183594 190.308594 C 23.882812 191.152344 23.589844 191.984375 23.308594 192.808594 C 23.242188 193.011719 23.171875 193.21875 23.101562 193.421875 C 23.039062 193.628906 22.972656 193.832031 22.90625 194.035156 C 22.777344 194.441406 22.648438 194.847656 22.527344 195.246094 C 22.425781 195.574219 22.328125 195.894531 22.230469 196.214844 L 19.535156 204.085938 C 19.476562 204.261719 19.734375 204.382812 19.863281 204.242188 C 21.351562 202.625 24.378906 200.648438 25.230469 200.105469 C 25.332031 200.042969 25.316406 199.90625 25.207031 199.859375 C 24.453125 199.519531 23.875 198.988281 23.433594 198.425781 C 24.417969 195.625 25.394531 192.929688 26.363281 190.332031 L 26.382812 190.339844 L 27.058594 188.503906 C 27.226562 188.039062 27.40625 187.578125 27.578125 187.117188 L 28.109375 185.734375 L 28.636719 184.351562 C 28.722656 184.121094 28.816406 183.890625 28.90625 183.660156 L 29.179688 182.972656 L 29.726562 181.59375 L 30 180.90625 L 30.203125 180.386719 L 30.273438 180.214844 L 31.402344 177.472656 L 31.6875 176.785156 L 31.976562 176.101562 L 32.5625 174.734375 L 33.144531 173.371094 C 33.195312 173.257812 33.246094 173.144531 33.296875 173.027344 L 33.445312 172.6875 L 33.75 172.007812 L 34.351562 170.648438 L 34.65625 169.96875 C 34.757812 169.742188 34.863281 169.519531 34.964844 169.292969 L 36.214844 166.589844 L 37.507812 163.898438 C 39.253906 160.320312 41.101562 156.777344 43.074219 153.289062 C 43.558594 152.410156 44.078125 151.550781 44.582031 150.683594 L 44.964844 150.03125 L 45.011719 149.949219 L 45.058594 149.871094 L 45.160156 149.710938 L 45.355469 149.386719 L 46.140625 148.097656 L 46.339844 147.777344 C 46.402344 147.667969 46.46875 147.5625 46.539062 147.453125 L 46.945312 146.816406 L 47.757812 145.539062 L 47.859375 145.378906 L 47.960938 145.222656 L 48.171875 144.90625 L 48.589844 144.273438 L 49.222656 143.324219 L 49.328125 143.167969 C 49.363281 143.113281 49.398438 143.0625 49.433594 143.007812 L 50.734375 141.132812 C 50.882812 140.925781 51.035156 140.722656 51.183594 140.515625 L 52.078125 139.277344 L 52.191406 139.125 L 52.304688 138.96875 L 52.535156 138.664062 L 53 138.054688 L 53.460938 137.445312 L 53.578125 137.292969 C 53.617188 137.242188 53.65625 137.191406 53.695312 137.140625 L 53.9375 136.839844 L 54.890625 135.636719 C 54.929688 135.585938 54.96875 135.535156 55.011719 135.484375 L 55.132812 135.335938 L 55.382812 135.039062 L 56.367188 133.851562 L 56.875 133.269531 L 57.386719 132.683594 L 57.640625 132.390625 C 57.683594 132.34375 57.722656 132.296875 57.769531 132.246094 L 57.898438 132.101562 L 58.949219 130.957031 L 59.082031 130.8125 C 59.125 130.765625 59.171875 130.71875 59.214844 130.671875 L 59.484375 130.390625 L 60.296875 129.542969 L 60.433594 129.402344 C 60.480469 129.355469 60.527344 129.3125 60.574219 129.265625 L 61.132812 128.710938 C 62.621094 127.242188 64.1875 125.820312 65.84375 124.476562 L 65.734375 124.566406 C 65.699219 124.59375 65.664062 124.625 65.628906 124.65625 L 65.414062 124.839844 L 64.992188 125.210938 L 64.566406 125.582031 L 64.460938 125.671875 L 64.40625 125.71875 L 64.355469 125.765625 L 64.152344 125.957031 L 63.328125 126.714844 L 63.121094 126.90625 L 62.921875 127.097656 L 62.523438 127.488281 L 62.125 127.875 L 61.925781 128.066406 C 61.894531 128.101562 61.859375 128.132812 61.828125 128.164062 L 61.730469 128.265625 L 60.957031 129.058594 L 60.570312 129.453125 C 60.445312 129.585938 60.320312 129.722656 60.195312 129.855469 L 59.449219 130.664062 C 57.472656 132.828125 55.640625 135.082031 53.917969 137.386719 C 52.195312 139.695312 50.585938 142.058594 49.054688 144.457031 L 48.484375 145.359375 L 48.339844 145.582031 L 48.199219 145.8125 L 47.921875 146.265625 L 47.371094 147.171875 L 47.09375 147.628906 L 46.953125 147.855469 L 46.820312 148.082031 L 45.75 149.914062 L 45.617188 150.144531 L 45.546875 150.257812 L 45.484375 150.375 L 45.226562 150.835938 L 44.707031 151.761719 L 44.191406 152.683594 C 44.148438 152.761719 44.105469 152.839844 44.0625 152.917969 L 43.9375 153.148438 L 43.6875 153.613281 C 43.355469 154.234375 43.019531 154.855469 42.691406 155.476562 L 41.722656 157.347656 L 41.484375 157.816406 C 41.402344 157.972656 41.320312 158.128906 41.242188 158.289062 L 40.777344 159.230469 L 40.3125 160.175781 L 40.078125 160.644531 L 39.960938 160.882812 L 39.902344 161 L 39.847656 161.117188 L 38.945312 163.015625 L 38.496094 163.964844 L 38.058594 164.917969 L 37.1875 166.824219 L 37.082031 167.0625 C 37.042969 167.144531 37.007812 167.222656 36.976562 167.304688 L 36.765625 167.78125 L 35.925781 169.699219 C 35.785156 170.019531 35.640625 170.339844 35.507812 170.660156 L 34.699219 172.589844 L 34.292969 173.550781 C 34.222656 173.710938 34.160156 173.875 34.09375 174.035156 L 33.898438 174.519531 L 33.113281 176.453125 L 32.820312 177.179688 L 32.726562 177.421875 L 32.347656 178.394531 L 31.59375 180.339844 L 31.402344 180.824219 L 31.21875 181.3125 L 30.855469 182.289062 C 30.699219 182.703125 31.183594 183.082031 31.5625 182.84375 C 32.144531 182.480469 32.71875 182.117188 33.28125 181.753906 C 33.566406 181.574219 33.847656 181.394531 34.128906 181.214844 C 34.40625 181.035156 34.6875 180.855469 34.964844 180.679688 C 35.515625 180.324219 36.058594 179.96875 36.59375 179.613281 C 36.859375 179.433594 37.125 179.257812 37.390625 179.082031 C 37.65625 178.90625 37.917969 178.730469 38.179688 178.558594 C 38.703125 178.207031 39.21875 177.859375 39.726562 177.511719 C 39.980469 177.339844 40.230469 177.167969 40.480469 176.996094 C 40.730469 176.820312 40.972656 176.648438 41.222656 176.476562 C 42.214844 175.796875 43.171875 175.117188 44.097656 174.441406 C 47.824219 171.753906 51.113281 169.175781 54.019531 166.695312 C 53.144531 166.777344 52.347656 166.839844 51.621094 166.882812 C 50.898438 166.929688 50.25 166.957031 49.667969 166.96875 C 48.503906 166.992188 47.601562 166.953125 46.921875 166.886719 C 46.242188 166.820312 45.78125 166.730469 45.492188 166.652344 C 45.199219 166.574219 45.082031 166.515625 45.082031 166.515625 C 46.398438 166.941406 47.902344 166.851562 49.417969 166.492188 C 49.605469 166.449219 49.796875 166.398438 49.984375 166.347656 C 50.078125 166.320312 50.171875 166.292969 50.269531 166.265625 C 50.363281 166.234375 50.457031 166.207031 50.554688 166.179688 C 50.933594 166.0625 51.3125 165.929688 51.6875 165.789062 C 52.4375 165.507812 53.167969 165.1875 53.859375 164.855469 C 54.035156 164.773438 54.207031 164.691406 54.375 164.609375 C 54.546875 164.523438 54.714844 164.441406 54.878906 164.359375 C 55.207031 164.191406 55.523438 164.027344 55.824219 163.863281 C 56.125 163.699219 56.410156 163.542969 56.679688 163.386719 C 56.949219 163.234375 57.203125 163.089844 57.4375 162.953125 C 58.378906 162.414062 59 162.015625 59.136719 161.949219 C 59.152344 161.941406 59.167969 161.945312 59.183594 161.957031 C 59.199219 161.972656 59.222656 161.976562 59.238281 161.960938 C 61.722656 159.558594 63.851562 157.25 65.695312 155.019531 C 67.539062 152.792969 69.097656 150.640625 70.433594 148.554688 C 70.515625 148.421875 70.597656 148.292969 70.679688 148.160156 C 70.761719 148.03125 70.84375 147.902344 70.921875 147.773438 C 71.085938 147.519531 71.242188 147.261719 71.394531 147 C 71.433594 146.9375 71.472656 146.871094 71.507812 146.804688 L 71.566406 146.707031 L 71.621094 146.613281 C 71.699219 146.488281 71.773438 146.363281 71.847656 146.234375 C 71.996094 145.980469 72.140625 145.726562 72.28125 145.46875 C 72.316406 145.40625 72.351562 145.339844 72.386719 145.277344 C 72.421875 145.214844 72.457031 145.152344 72.492188 145.089844 C 72.5625 144.964844 72.632812 144.839844 72.699219 144.714844 C 72.839844 144.464844 72.972656 144.210938 73.101562 143.960938 C 73.132812 143.894531 73.167969 143.832031 73.199219 143.773438 C 73.230469 143.710938 73.265625 143.648438 73.296875 143.585938 C 73.363281 143.464844 73.425781 143.339844 73.488281 143.214844 C 73.550781 143.09375 73.617188 142.96875 73.675781 142.84375 C 73.707031 142.78125 73.738281 142.71875 73.769531 142.65625 C 73.800781 142.59375 73.828125 142.527344 73.859375 142.46875 C 74.835938 140.5 75.667969 138.578125 76.4375 136.691406 C 76.148438 136.707031 75.867188 136.71875 75.59375 136.730469 C 75.316406 136.753906 75.042969 136.773438 74.777344 136.796875 C 74.644531 136.804688 74.511719 136.816406 74.378906 136.828125 C 74.3125 136.832031 74.246094 136.835938 74.183594 136.839844 C 74.148438 136.84375 74.117188 136.847656 74.085938 136.847656 C 74.050781 136.851562 74.019531 136.855469 73.988281 136.859375 C 73.730469 136.882812 73.476562 136.910156 73.230469 136.933594 C 72.980469 136.960938 72.734375 136.984375 72.496094 137.007812 C 72.464844 137.007812 72.4375 137.011719 72.40625 137.015625 C 72.375 137.019531 72.347656 137.023438 72.316406 137.027344 C 72.257812 137.03125 72.199219 137.039062 72.144531 137.046875 C 72.027344 137.0625 71.910156 137.074219 71.796875 137.085938 C 71.566406 137.113281 71.34375 137.140625 71.125 137.164062 C 71.015625 137.175781 70.90625 137.191406 70.800781 137.203125 C 70.746094 137.207031 70.691406 137.214844 70.640625 137.21875 C 70.585938 137.226562 70.535156 137.234375 70.480469 137.238281 C 70.066406 137.292969 69.671875 137.34375 69.292969 137.386719 C 69.101562 137.410156 68.917969 137.429688 68.738281 137.453125 C 68.648438 137.460938 68.5625 137.472656 68.476562 137.484375 C 68.390625 137.496094 68.304688 137.507812 68.222656 137.515625 C 67.886719 137.558594 67.570312 137.59375 67.269531 137.628906 C 67.121094 137.644531 66.976562 137.65625 66.835938 137.671875 C 66.765625 137.679688 66.699219 137.683594 66.632812 137.691406 C 66.5625 137.699219 66.496094 137.703125 66.433594 137.710938 C 65.398438 137.820312 64.660156 137.855469 64.183594 137.855469 C 64.125 137.855469 64.070312 137.855469 64.019531 137.855469 C 63.96875 137.855469 63.921875 137.855469 63.878906 137.855469 C 63.792969 137.851562 63.71875 137.851562 63.664062 137.847656 C 63.550781 137.839844 63.5 137.835938 63.5 137.835938 C 63.59375 137.828125 63.6875 137.816406 63.785156 137.808594 C 63.835938 137.800781 63.882812 137.792969 63.933594 137.789062 C 63.980469 137.78125 64.03125 137.773438 64.082031 137.769531 C 64.285156 137.738281 64.488281 137.703125 64.699219 137.660156 C 65.121094 137.570312 65.558594 137.453125 66.007812 137.3125 C 66.0625 137.296875 66.117188 137.277344 66.175781 137.261719 C 66.234375 137.242188 66.289062 137.226562 66.347656 137.207031 C 66.464844 137.171875 66.578125 137.136719 66.695312 137.097656 C 66.929688 137.019531 67.164062 136.9375 67.398438 136.851562 C 67.867188 136.671875 68.359375 136.496094 68.84375 136.300781 C 68.964844 136.253906 69.085938 136.203125 69.207031 136.152344 C 69.269531 136.128906 69.328125 136.105469 69.390625 136.078125 L 69.480469 136.039062 L 69.574219 136.003906 C 69.820312 135.90625 70.066406 135.808594 70.3125 135.707031 C 70.433594 135.65625 70.554688 135.605469 70.679688 135.554688 L 70.859375 135.476562 L 70.953125 135.4375 C 70.984375 135.421875 71.011719 135.410156 71.042969 135.398438 C 71.289062 135.300781 71.535156 135.199219 71.777344 135.101562 C 71.894531 135.050781 72.015625 135 72.136719 134.949219 C 72.195312 134.921875 72.253906 134.898438 72.316406 134.871094 C 72.375 134.847656 72.4375 134.824219 72.496094 134.800781 C 72.734375 134.703125 72.972656 134.609375 73.203125 134.511719 C 73.320312 134.464844 73.4375 134.414062 73.550781 134.367188 L 73.722656 134.296875 C 73.78125 134.277344 73.839844 134.253906 73.894531 134.230469 C 74.125 134.140625 74.347656 134.054688 74.566406 133.964844 C 74.859375 133.84375 75.144531 133.726562 75.414062 133.585938 C 75.546875 133.515625 75.679688 133.445312 75.808594 133.367188 L 76.003906 133.25 C 76.066406 133.210938 76.128906 133.175781 76.191406 133.132812 C 76.316406 133.054688 76.4375 132.96875 76.554688 132.882812 C 76.617188 132.835938 76.671875 132.792969 76.730469 132.746094 L 76.816406 132.675781 L 76.902344 132.609375 C 77.132812 132.429688 77.347656 132.230469 77.554688 132.019531 C 78.378906 131.1875 79.035156 130.175781 79.554688 128.976562 C 79.65625 128.738281 79.757812 128.503906 79.859375 128.269531 C 79.964844 128.035156 80.070312 127.804688 80.171875 127.574219 C 80.226562 127.460938 80.28125 127.34375 80.332031 127.226562 C 80.386719 127.113281 80.441406 127 80.492188 126.886719 C 80.601562 126.660156 80.707031 126.433594 80.820312 126.207031 C 80.929688 125.984375 81.042969 125.761719 81.152344 125.539062 C 81.179688 125.484375 81.207031 125.429688 81.234375 125.375 C 81.261719 125.320312 81.292969 125.261719 81.320312 125.207031 C 81.378906 125.101562 81.433594 124.992188 81.492188 124.882812 C 81.550781 124.773438 81.609375 124.664062 81.664062 124.558594 C 81.695312 124.503906 81.722656 124.449219 81.753906 124.394531 L 81.796875 124.3125 L 81.839844 124.234375 C 81.960938 124.023438 82.078125 123.8125 82.195312 123.601562 C 82.316406 123.390625 82.4375 123.1875 82.558594 122.984375 C 82.621094 122.878906 82.683594 122.777344 82.746094 122.675781 C 82.777344 122.625 82.804688 122.574219 82.835938 122.523438 C 82.867188 122.472656 82.898438 122.425781 82.929688 122.375 C 83.058594 122.179688 83.183594 121.980469 83.308594 121.785156 C 83.339844 121.738281 83.375 121.6875 83.40625 121.636719 C 83.4375 121.589844 83.46875 121.542969 83.5 121.496094 C 83.566406 121.398438 83.628906 121.304688 83.695312 121.210938 C 83.761719 121.117188 83.824219 121.023438 83.890625 120.929688 C 83.921875 120.882812 83.953125 120.835938 83.988281 120.789062 C 84.019531 120.746094 84.050781 120.699219 84.085938 120.652344 C 84.21875 120.472656 84.351562 120.292969 84.484375 120.113281 C 84.546875 120.023438 84.613281 119.9375 84.683594 119.851562 C 84.75 119.765625 84.816406 119.679688 84.882812 119.59375 C 84.949219 119.507812 85.019531 119.421875 85.085938 119.339844 C 85.152344 119.253906 85.21875 119.175781 85.289062 119.09375 C 85.421875 118.929688 85.558594 118.769531 85.695312 118.609375 C 85.828125 118.453125 85.964844 118.300781 86.101562 118.152344 C 86.171875 118.078125 86.238281 118.003906 86.304688 117.929688 C 86.375 117.855469 86.441406 117.785156 86.511719 117.714844 C 86.644531 117.574219 86.78125 117.433594 86.917969 117.296875 C 87.1875 117.03125 87.453125 116.773438 87.722656 116.539062 C 87.789062 116.476562 87.855469 116.417969 87.917969 116.363281 C 87.984375 116.304688 88.046875 116.246094 88.113281 116.191406 C 88.246094 116.082031 88.375 115.972656 88.503906 115.871094 C 89.496094 115.046875 90.316406 114.476562 90.808594 114.140625 C 90.949219 114.042969 91.003906 113.90625 90.976562 113.765625 " fill-opacity="1" fill-rule="nonzero"/></g><g fill="#000000" fill-opacity="1"><g transform="translate(19.453689, 210.525245)"><g><path d="M 27.953125 -40.984375 L 27.953125 -13.265625 C 27.953125 -8.941406 26.691406 -5.570312 24.171875 -3.15625 C 21.660156 -0.738281 18.203125 0.46875 13.796875 0.46875 C 8.222656 0.46875 3.523438 -1.710938 -0.296875 -6.078125 L 4.5 -13.03125 C 7.425781 -10 10.289062 -8.484375 13.09375 -8.484375 C 16.019531 -8.484375 17.484375 -10.15625 17.484375 -13.5 L 17.484375 -32.5625 L 3.453125 -32.5625 L 3.453125 -40.984375 Z M 27.953125 -40.984375 "/></g></g></g><g fill="#000000" fill-opacity="1"><g transform="translate(47.460993, 210.525245)"><g><path d="M 18.1875 -31.984375 C 22.507812 -31.984375 25.867188 -30.976562 28.265625 -28.96875 C 30.660156 -26.957031 31.878906 -24.160156 31.921875 -20.578125 L 31.921875 0 L 22.046875 0 L 22.046875 -3.625 C 19.972656 -0.894531 16.753906 0.46875 12.390625 0.46875 C 9.078125 0.46875 6.445312 -0.445312 4.5 -2.28125 C 2.550781 -4.113281 1.578125 -6.488281 1.578125 -9.40625 C 1.578125 -12.414062 2.617188 -14.75 4.703125 -16.40625 C 6.785156 -18.0625 9.78125 -18.90625 13.6875 -18.9375 L 21.984375 -18.9375 L 21.984375 -19.40625 C 21.984375 -20.96875 21.46875 -22.1875 20.4375 -23.0625 C 19.40625 -23.9375 17.875 -24.375 15.84375 -24.375 C 13 -24.375 9.863281 -23.5 6.4375 -21.75 L 3.5625 -28.421875 C 8.664062 -30.796875 13.539062 -31.984375 18.1875 -31.984375 Z M 15.5 -6.375 C 17.09375 -6.375 18.492188 -6.769531 19.703125 -7.5625 C 20.910156 -8.363281 21.671875 -9.410156 21.984375 -10.703125 L 21.984375 -13.5 L 15.609375 -13.5 C 12.566406 -13.5 11.046875 -12.367188 11.046875 -10.109375 C 11.046875 -8.941406 11.4375 -8.023438 12.21875 -7.359375 C 13 -6.703125 14.09375 -6.375 15.5 -6.375 Z M 15.5 -6.375 "/></g></g></g><g fill="#000000" fill-opacity="1"><g transform="translate(79.210444, 210.525245)"><g><path d="M 34.328125 -31.515625 L 20.703125 3.28125 C 18.359375 8.96875 14.300781 11.8125 8.53125 11.8125 C 5.1875 11.8125 2.128906 10.738281 -0.640625 8.59375 L 3.5625 1.703125 C 4.96875 2.828125 6.351562 3.390625 7.71875 3.390625 C 9.507812 3.390625 10.816406 2.550781 11.640625 0.875 L 12.390625 -0.703125 L -0.703125 -31.515625 L 9.703125 -31.515625 L 17.421875 -10.578125 L 24.265625 -31.515625 Z M 34.328125 -31.515625 "/></g></g></g><g fill="#000000" fill-opacity="1"><g transform="translate(109.790479, 210.525245)"><g><path d="M 17.78125 -22.453125 L 23.390625 -31.515625 L 34.4375 -31.515625 L 24.4375 -16.203125 L 35.140625 0 L 23.5 0 L 17.78125 -9.875 L 11.34375 0 L 0.234375 0 L 10.984375 -16.140625 L 0.9375 -31.515625 L 12.515625 -31.515625 Z M 17.78125 -22.453125 "/></g></g></g><g fill="#000000" fill-opacity="1"><g transform="translate(141.890747, 210.525245)"><g><path d="M 5.28125 -44.40625 C 6.28125 -45.394531 7.554688 -45.890625 9.109375 -45.890625 C 10.671875 -45.890625 11.945312 -45.394531 12.9375 -44.40625 C 13.9375 -43.414062 14.4375 -42.140625 14.4375 -40.578125 C 14.4375 -39.015625 13.9375 -37.726562 12.9375 -36.71875 C 11.945312 -35.707031 10.671875 -35.203125 9.109375 -35.203125 C 7.554688 -35.203125 6.28125 -35.707031 5.28125 -36.71875 C 4.289062 -37.726562 3.796875 -39.015625 3.796875 -40.578125 C 3.796875 -42.140625 4.289062 -43.414062 5.28125 -44.40625 Z M 14.09375 0 L 4.03125 0 L 4.03125 -31.515625 L 14.09375 -31.515625 Z M 14.09375 0 "/></g></g></g><g fill="#000000" fill-opacity="1"><g transform="translate(156.742063, 210.525245)"><g><path d="M 24.671875 -31.984375 C 28.140625 -31.984375 30.925781 -30.878906 33.03125 -28.671875 C 35.132812 -26.472656 36.1875 -23.539062 36.1875 -19.875 L 36.1875 0 L 26.140625 0 L 26.140625 -17.078125 C 26.140625 -18.910156 25.640625 -20.359375 24.640625 -21.421875 C 23.648438 -22.492188 22.296875 -23.03125 20.578125 -23.03125 C 18.785156 -23.03125 17.3125 -22.445312 16.15625 -21.28125 C 15.007812 -20.113281 14.34375 -18.570312 14.15625 -16.65625 L 14.15625 0 L 4.03125 0 L 4.03125 -31.515625 L 14.15625 -31.515625 L 14.15625 -26.375 C 16.375 -30.03125 19.878906 -31.898438 24.671875 -31.984375 Z M 24.671875 -31.984375 "/></g></g></g><g fill="#ffffff" fill-opacity="1"><g transform="translate(193.834914, 209.032461)"><g><path d="M 23.25 -31.046875 C 27.570312 -31.046875 31.050781 -29.59375 33.6875 -26.6875 C 36.332031 -23.78125 37.65625 -19.953125 37.65625 -15.203125 C 37.65625 -10.535156 36.363281 -6.773438 33.78125 -3.921875 C 31.195312 -1.078125 27.757812 0.34375 23.46875 0.34375 C 19.445312 0.34375 16.316406 -1.140625 14.078125 -4.109375 L 14.078125 0 L 4.21875 0 L 4.21875 -42.265625 L 14.078125 -42.265625 L 14.078125 -26.65625 C 16.347656 -29.582031 19.40625 -31.046875 23.25 -31.046875 Z M 20.84375 -7.46875 C 22.894531 -7.46875 24.554688 -8.21875 25.828125 -9.71875 C 27.109375 -11.21875 27.75 -13.144531 27.75 -15.5 C 27.75 -17.851562 27.109375 -19.769531 25.828125 -21.25 C 24.554688 -22.726562 22.894531 -23.46875 20.84375 -23.46875 C 18.875 -23.46875 17.253906 -22.726562 15.984375 -21.25 C 14.710938 -19.769531 14.078125 -17.851562 14.078125 -15.5 C 14.078125 -13.101562 14.703125 -11.164062 15.953125 -9.6875 C 17.203125 -8.207031 18.832031 -7.46875 20.84375 -7.46875 Z M 20.84375 -7.46875 "/></g></g></g><g fill="#ffffff" fill-opacity="1"><g transform="translate(229.60518, 209.032461)"><g><path d="M 14.078125 0 L 4.21875 0 L 4.21875 -42.265625 L 14.078125 -42.265625 Z M 14.078125 0 "/></g></g></g><g fill="#ffffff" fill-opacity="1"><g transform="translate(244.642177, 209.032461)"><g><path d="M 18.171875 -31.046875 C 23.179688 -31.046875 27.222656 -29.613281 30.296875 -26.75 C 33.378906 -23.882812 34.921875 -20.09375 34.921875 -15.375 C 34.921875 -10.664062 33.378906 -6.867188 30.296875 -3.984375 C 27.222656 -1.097656 23.179688 0.34375 18.171875 0.34375 C 13.117188 0.34375 9.054688 -1.097656 5.984375 -3.984375 C 2.910156 -6.867188 1.375 -10.664062 1.375 -15.375 C 1.375 -20.09375 2.910156 -23.882812 5.984375 -26.75 C 9.054688 -29.613281 13.117188 -31.046875 18.171875 -31.046875 Z M 18.171875 -23.25 C 16.117188 -23.25 14.457031 -22.503906 13.1875 -21.015625 C 11.914062 -19.535156 11.28125 -17.617188 11.28125 -15.265625 C 11.28125 -12.867188 11.914062 -10.941406 13.1875 -9.484375 C 14.457031 -8.023438 16.117188 -7.296875 18.171875 -7.296875 C 20.179688 -7.296875 21.820312 -8.023438 23.09375 -9.484375 C 24.375 -10.941406 25.015625 -12.867188 25.015625 -15.265625 C 25.015625 -17.617188 24.375 -19.535156 23.09375 -21.015625 C 21.820312 -22.503906 20.179688 -23.25 18.171875 -23.25 Z M 18.171875 -23.25 "/></g></g></g><g fill="#ffffff" fill-opacity="1"><g transform="translate(277.678374, 209.032461)"><g><path d="M 33.265625 -30.703125 L 33.265625 -2.796875 C 33.265625 1.535156 31.734375 4.992188 28.671875 7.578125 C 25.617188 10.160156 21.609375 11.453125 16.640625 11.453125 C 11.546875 11.453125 6.988281 10.101562 2.96875 7.40625 L 6.375 0.734375 C 9.34375 2.785156 12.515625 3.8125 15.890625 3.8125 C 18.242188 3.8125 20.09375 3.242188 21.4375 2.109375 C 22.789062 0.972656 23.46875 -0.5625 23.46875 -2.5 L 23.46875 -5.75 C 21.382812 -3.019531 18.441406 -1.65625 14.640625 -1.65625 C 10.722656 -1.65625 7.539062 -3.019531 5.09375 -5.75 C 2.644531 -8.488281 1.421875 -12.078125 1.421875 -16.515625 C 1.421875 -20.847656 2.617188 -24.351562 5.015625 -27.03125 C 7.410156 -29.707031 10.539062 -31.046875 14.40625 -31.046875 C 18.320312 -31.085938 21.34375 -29.722656 23.46875 -26.953125 L 23.46875 -30.703125 Z M 17.09375 -8.765625 C 18.988281 -8.765625 20.523438 -9.457031 21.703125 -10.84375 C 22.878906 -12.238281 23.46875 -14.035156 23.46875 -16.234375 C 23.46875 -18.472656 22.878906 -20.285156 21.703125 -21.671875 C 20.523438 -23.054688 18.988281 -23.75 17.09375 -23.75 C 15.15625 -23.75 13.585938 -23.054688 12.390625 -21.671875 C 11.191406 -20.285156 10.59375 -18.472656 10.59375 -16.234375 C 10.59375 -14.035156 11.191406 -12.238281 12.390625 -10.84375 C 13.585938 -9.457031 15.15625 -8.765625 17.09375 -8.765625 Z M 17.09375 -8.765625 "/></g></g></g><g fill="#ffffff" fill-opacity="1"><g transform="translate(311.284165, 209.032461)"><g><path d="M 3.46875 -7.75 C 4.34375 -8.625 5.484375 -9.0625 6.890625 -9.0625 C 8.296875 -9.0625 9.441406 -8.625 10.328125 -7.75 C 11.222656 -6.875 11.671875 -5.734375 11.671875 -4.328125 C 11.671875 -2.921875 11.222656 -1.769531 10.328125 -0.875 C 9.441406 0.0078125 8.296875 0.453125 6.890625 0.453125 C 5.484375 0.453125 4.34375 0.0078125 3.46875 -0.875 C 2.601562 -1.769531 2.171875 -2.921875 2.171875 -4.328125 C 2.171875 -5.734375 2.601562 -6.875 3.46875 -7.75 Z M 3.46875 -7.75 "/></g></g></g></svg>